<svg width="67" height="67" viewBox="0 0 67 67" fill="none" xmlns="http://www.w3.org/2000/svg">
<path d="M10.0625 10.0625C10.0625 7.5761 11.0502 5.19153 12.8084 3.43337C14.5665 1.67522 16.9511 0.6875 19.4375 0.6875C21.9239 0.6875 24.3085 1.67522 26.0666 3.43337C27.8248 5.19153 28.8125 7.5761 28.8125 10.0625C28.8125 12.5489 27.8248 14.9335 26.0666 16.6916C24.3085 18.4498 21.9239 19.4375 19.4375 19.4375C16.9511 19.4375 14.5665 18.4498 12.8084 16.6916C11.0502 14.9335 10.0625 12.5489 10.0625 10.0625V10.0625ZM41.8391 17.4875L42.0359 17.6375C44.0248 19.1117 46.5161 19.7395 48.9661 19.3836C51.416 19.0278 53.6258 17.7174 55.1132 15.7383C56.6005 13.7592 57.2447 11.2721 56.905 8.81984C56.5654 6.36757 55.2696 4.14918 53.3003 2.6488C51.3311 1.14843 48.8483 0.48789 46.3938 0.81133C43.9394 1.13477 41.7125 2.41593 40.1992 4.37523C38.6858 6.33452 38.0089 8.81287 38.3161 11.2694C38.6234 13.726 39.8898 15.9613 41.8391 17.4875V17.4875ZM25.3813 24.125C25.97 23.0101 26.7776 22.0255 27.7557 21.23C28.7338 20.4344 29.8623 19.8443 31.0737 19.495C32.2851 19.1457 33.5545 19.0443 34.806 19.1969C36.0575 19.3495 37.2654 19.753 38.3574 20.3832C39.4493 21.0134 40.403 21.8574 41.1612 22.8646C41.9195 23.8719 42.4668 25.0218 42.7704 26.2454C43.074 27.4691 43.1276 28.7414 42.9281 29.9863C42.7287 31.2312 42.2801 32.4231 41.6094 33.4906C40.319 35.5443 38.2829 37.018 35.9288 37.6021C33.5747 38.1862 31.0858 37.8351 28.9851 36.6228C26.8844 35.4104 25.3353 33.431 24.6633 31.1005C23.9913 28.77 24.2486 26.2698 25.3813 24.125V24.125ZM7.71875 24.125H20.2344C19.4013 26.5042 19.2201 29.063 19.7098 31.5358C20.1994 34.0086 21.3419 36.3053 23.0187 38.1875H21.7812C19.3645 38.1872 17.0068 38.9337 15.0307 40.3249C13.0546 41.7162 11.5568 43.6841 10.7422 45.9594C9.16875 45.3273 7.69554 44.4699 6.36875 43.4141C2.84375 40.5781 0.6875 36.3875 0.6875 31.1562C0.6875 29.2914 1.42829 27.503 2.74691 26.1844C4.06552 24.8658 5.85395 24.125 7.71875 24.125V24.125ZM45.2188 38.1875C47.6348 38.1874 49.9918 38.9342 51.9671 40.3254C53.9424 41.7167 55.4394 43.6845 56.2531 45.9594C57.8469 45.3078 59.3234 44.4594 60.6313 43.4141C64.1563 40.5781 66.3125 36.3875 66.3125 31.1562C66.3125 29.2914 65.5717 27.503 64.2531 26.1844C62.9345 24.8658 61.1461 24.125 59.2812 24.125H46.7656C47.2812 25.5922 47.5625 27.1719 47.5625 28.8125C47.5668 32.2724 46.2912 35.6117 43.9813 38.1875H45.2188ZM51.7203 47.225C52.0625 48.05 52.25 48.9594 52.25 49.9062C52.25 55.1375 50.0984 59.3281 46.5688 62.1641C43.0953 64.9531 38.4359 66.3125 33.5 66.3125C28.5641 66.3125 23.9047 64.9531 20.4312 62.1641C16.9062 59.3281 14.75 55.1375 14.75 49.9062C14.7475 48.9822 14.9277 48.0668 15.2802 47.2126C15.6327 46.3584 16.1505 45.5823 16.8039 44.9289C17.4573 44.2755 18.2334 43.7577 19.0876 43.4052C19.9418 43.0527 20.8572 42.8725 21.7812 42.875H45.2188C46.6114 42.8747 47.9728 43.2879 49.1303 44.0624C50.2878 44.8368 51.1892 45.9376 51.7203 47.225Z" fill="#F8F8F8"/>
</svg>
