<svg width="57" height="57" viewBox="0 0 57 57" fill="none" xmlns="http://www.w3.org/2000/svg">
<path d="M3.5 31.625H22.25C23.0788 31.625 23.8737 31.2958 24.4597 30.7097C25.0458 30.1237 25.375 29.3288 25.375 28.5V3.5C25.375 2.6712 25.0458 1.87634 24.4597 1.29029C23.8737 0.70424 23.0788 0.375 22.25 0.375H3.5C2.6712 0.375 1.87634 0.70424 1.29029 1.29029C0.70424 1.87634 0.375 2.6712 0.375 3.5V28.5C0.375 29.3288 0.70424 30.1237 1.29029 30.7097C1.87634 31.2958 2.6712 31.625 3.5 31.625ZM0.375 53.5C0.375 54.3288 0.70424 55.1237 1.29029 55.7097C1.87634 56.2958 2.6712 56.625 3.5 56.625H22.25C23.0788 56.625 23.8737 56.2958 24.4597 55.7097C25.0458 55.1237 25.375 54.3288 25.375 53.5V41C25.375 40.1712 25.0458 39.3763 24.4597 38.7903C23.8737 38.2042 23.0788 37.875 22.25 37.875H3.5C2.6712 37.875 1.87634 38.2042 1.29029 38.7903C0.70424 39.3763 0.375 40.1712 0.375 41V53.5ZM31.625 53.5C31.625 54.3288 31.9542 55.1237 32.5403 55.7097C33.1263 56.2958 33.9212 56.625 34.75 56.625H53.5C54.3288 56.625 55.1237 56.2958 55.7097 55.7097C56.2958 55.1237 56.625 54.3288 56.625 53.5V31.625C56.625 30.7962 56.2958 30.0013 55.7097 29.4153C55.1237 28.8292 54.3288 28.5 53.5 28.5H34.75C33.9212 28.5 33.1263 28.8292 32.5403 29.4153C31.9542 30.0013 31.625 30.7962 31.625 31.625V53.5ZM34.75 22.25H53.5C54.3288 22.25 55.1237 21.9208 55.7097 21.3347C56.2958 20.7487 56.625 19.9538 56.625 19.125V3.5C56.625 2.6712 56.2958 1.87634 55.7097 1.29029C55.1237 0.70424 54.3288 0.375 53.5 0.375H34.75C33.9212 0.375 33.1263 0.70424 32.5403 1.29029C31.9542 1.87634 31.625 2.6712 31.625 3.5V19.125C31.625 19.9538 31.9542 20.7487 32.5403 21.3347C33.1263 21.9208 33.9212 22.25 34.75 22.25Z" fill="#F8F8F8"/>
</svg>
