<svg width="57" height="57" viewBox="0 0 57 57" fill="none" xmlns="http://www.w3.org/2000/svg">
<path d="M28.5 7.40625C32.6719 7.40625 36.7502 8.64338 40.2191 10.9612C43.6879 13.279 46.3915 16.5734 47.9881 20.4278C49.5846 24.2822 50.0023 28.5234 49.1884 32.6152C48.3745 36.707 46.3655 40.4655 43.4155 43.4155C40.4655 46.3655 36.707 48.3745 32.6152 49.1884C28.5234 50.0023 24.2822 49.5846 20.4278 47.9881C16.5734 46.3916 13.279 43.6879 10.9612 40.2191C8.64338 36.7502 7.40625 32.672 7.40625 28.5C7.40625 27.5676 7.03586 26.6734 6.37655 26.0141C5.71724 25.3548 4.82303 24.9844 3.89062 24.9844C2.95822 24.9844 2.06401 25.3548 1.4047 26.0141C0.745395 26.6734 0.375 27.5676 0.375 28.5C0.375634 34.8107 2.49861 40.9378 6.40254 45.896C10.3065 50.8542 15.7645 54.3554 21.8989 55.8365C28.0333 57.3177 34.4875 56.6927 40.2238 54.0622C45.96 51.4316 50.6449 46.9483 53.525 41.3332C56.4052 35.7181 57.3132 29.2975 56.1031 23.1039C54.8929 16.9104 51.635 11.3038 46.8531 7.18571C42.0713 3.06765 36.0434 0.67745 29.7389 0.399474C23.4343 0.121498 17.2195 1.9719 12.0938 5.65313V3.89063C12.0937 2.95822 11.7234 2.06401 11.064 1.4047C10.4047 0.745396 9.51053 0.375001 8.57812 0.375001C7.64572 0.375001 6.75151 0.745396 6.0922 1.4047C5.43289 2.06401 5.0625 2.95822 5.0625 3.89063V15.6094C5.0625 17.55 6.6375 19.125 8.57812 19.125H15.6094C16.5418 19.125 17.436 18.7546 18.0953 18.0953C18.7546 17.436 19.125 16.5418 19.125 15.6094C19.125 14.677 18.7546 13.7828 18.0953 13.1235C17.436 12.4641 16.5418 12.0938 15.6094 12.0938H15.2391C18.9892 9.05341 23.6723 7.39801 28.5 7.40625ZM30.8438 17.9531C30.8437 17.0207 30.4734 16.1265 29.814 15.4672C29.1547 14.8079 28.2605 14.4375 27.3281 14.4375C26.3957 14.4375 25.5015 14.8079 24.8422 15.4672C24.1829 16.1265 23.8125 17.0207 23.8125 17.9531V29.6719C23.8125 31.6125 25.3875 33.1875 27.3281 33.1875H34.3594C35.2918 33.1875 36.186 32.8171 36.8453 32.1578C37.5046 31.4985 37.875 30.6043 37.875 29.6719C37.875 28.7395 37.5046 27.8453 36.8453 27.186C36.186 26.5266 35.2918 26.1563 34.3594 26.1563H30.8438V17.9531Z" fill="#F8F8F8"/>
</svg>
