<svg width="67" height="63" viewBox="0 0 67 63" fill="none" xmlns="http://www.w3.org/2000/svg">
<path d="M65.3237 30.9873L35.1553 0.840822C34.9381 0.623175 34.68 0.450504 34.396 0.332691C34.112 0.214878 33.8075 0.154236 33.5 0.154236C33.1925 0.154236 32.888 0.214878 32.604 0.332691C32.32 0.450504 32.0619 0.623175 31.8447 0.840822L1.67627 30.9873C0.797363 31.8662 0.299316 33.0601 0.299316 34.3052C0.299316 36.8906 2.40137 38.9927 4.98682 38.9927H8.16553V60.5039C8.16553 61.8003 9.21289 62.8477 10.5093 62.8477H28.8125V46.4414H37.0156V62.8477H56.4907C57.7871 62.8477 58.8345 61.8003 58.8345 60.5039V38.9927H62.0132C63.2583 38.9927 64.4521 38.502 65.3311 37.6157C67.1548 35.7847 67.1548 32.8184 65.3237 30.9873V30.9873Z" fill="#F8F8F8"/>
</svg>
