<svg width="63" height="58" viewBox="0 0 63 58" fill="none" xmlns="http://www.w3.org/2000/svg">
<path d="M11.675 56.9969C11.2263 57.387 10.6756 57.6411 10.0876 57.7292C9.49958 57.8173 8.89862 57.7359 8.35528 57.4944C7.81193 57.2529 7.34876 56.8614 7.02013 56.3659C6.6915 55.8704 6.51107 55.2914 6.5 54.6969V47.6875C4.8424 47.6875 3.25269 47.029 2.08058 45.8569C0.90848 44.6848 0.25 43.0951 0.25 41.4375V19.5625C0.25 17.9049 0.90848 16.3152 2.08058 15.1431C3.25269 13.971 4.8424 13.3125 6.5 13.3125H40.875C42.5326 13.3125 44.1223 13.971 45.2944 15.1431C46.4665 16.3152 47.125 17.9049 47.125 19.5625V41.4375C47.125 43.0951 46.4665 44.6848 45.2944 45.8569C44.1223 47.029 42.5326 47.6875 40.875 47.6875H25.2594L11.675 56.9969V56.9969ZM14.3125 47.3312C14.5973 47.3296 14.8769 47.2554 15.125 47.1156L22.4844 41.9969C23.0081 41.6327 23.6308 41.4375 24.2687 41.4375H37.75C38.5788 41.4375 39.3737 41.1083 39.9597 40.5222C40.5458 39.9362 40.875 39.1413 40.875 38.3125V22.6875C40.875 21.8587 40.5458 21.0638 39.9597 20.4778C39.3737 19.8917 38.5788 19.5625 37.75 19.5625H9.625C8.7962 19.5625 8.00134 19.8917 7.41529 20.4778C6.82924 21.0638 6.5 21.8587 6.5 22.6875V38.3125C6.5 40 7.84063 41.3813 9.625 41.4375C10.9062 41.4875 11.8344 41.6969 12.2625 42.1437C12.6625 42.5625 12.6844 43.2687 12.75 44.6125C12.7594 44.8094 12.7594 45.1656 12.75 45.7687C12.75 46.1831 12.9146 46.5806 13.2076 46.8736C13.5007 47.1666 13.8981 47.3312 14.3125 47.3312V47.3312ZM50.25 32.1125C50.24 32.4979 50.24 32.8834 50.25 33.2687V32.1125C50.3125 30.7687 50.3375 30.0625 50.7375 29.6437C51.1656 29.1969 52.0938 28.9875 53.375 28.9375C55.1594 28.8813 56.5 27.5 56.5 25.8125V10.1875C56.5 9.3587 56.1708 8.56384 55.5847 7.97779C54.9987 7.39174 54.2038 7.0625 53.375 7.0625H25.25C24.4212 7.0625 23.6263 7.39174 23.0403 7.97779C22.4542 8.56384 22.125 9.3587 22.125 10.1875H15.875V7.0625C15.875 5.4049 16.5335 3.81519 17.7056 2.64308C18.8777 1.47098 20.4674 0.8125 22.125 0.8125L56.5 0.8125C58.1576 0.8125 59.7473 1.47098 60.9194 2.64308C62.0915 3.81519 62.75 5.4049 62.75 7.0625V28.9375C62.75 30.5951 62.0915 32.1848 60.9194 33.3569C59.7473 34.529 58.1576 35.1875 56.5 35.1875V42.1969C56.4889 42.7914 56.3085 43.3704 55.9799 43.8659C55.6512 44.3614 55.1881 44.7529 54.6447 44.9944C54.1014 45.2359 53.5004 45.3173 52.9124 45.2292C52.3244 45.1411 51.7737 44.887 51.325 44.4969L50.25 43.7594V32.1156V32.1125Z" fill="#F8F8F8"/>
</svg>
