<svg width="63" height="61" viewBox="0 0 63 61" fill="none" xmlns="http://www.w3.org/2000/svg">
<path d="M31.1563 60.9375C34.5938 60.9375 37.4063 58.125 37.4063 54.6875H24.9063C24.9063 58.125 27.7188 60.9375 31.1563 60.9375ZM49.9063 42.1875V26.5625C49.9063 16.9688 44.8125 8.9375 35.8438 6.8125V4.6875C35.8438 2.09375 33.75 0 31.1563 0C28.5625 0 26.4688 2.09375 26.4688 4.6875V6.8125C17.5313 8.9375 12.4063 16.9375 12.4063 26.5625V42.1875L6.15625 48.4375V51.5625H56.1562V48.4375L49.9063 42.1875ZM43.6563 45.3125H18.6563V26.5625C18.6563 18.8125 23.375 12.5 31.1563 12.5C38.9375 12.5 43.6563 18.8125 43.6563 26.5625V45.3125ZM17.3438 4.9375L12.875 0.46875C5.375 6.1875 0.4375 15 0 25H6.25C6.47136 21.0369 7.58384 17.1748 9.50459 13.7012C11.4253 10.2276 14.1049 7.23204 17.3438 4.9375V4.9375ZM56.0625 25H62.3125C61.8437 15 56.9063 6.1875 49.4375 0.46875L45 4.9375C48.225 7.24334 50.8926 10.2422 52.8069 13.7139C54.7212 17.1857 55.8336 21.0421 56.0625 25Z" fill="#F8F8F8"/>
</svg>
