<svg width="75" height="75" viewBox="0 0 75 75" fill="none" xmlns="http://www.w3.org/2000/svg">
<path fill-rule="evenodd" clip-rule="evenodd" d="M50 28.125C50 31.4402 48.683 34.6196 46.3388 36.9638C43.9946 39.308 40.8152 40.625 37.5 40.625C34.1848 40.625 31.0054 39.308 28.6612 36.9638C26.317 34.6196 25 31.4402 25 28.125C25 24.8098 26.317 21.6304 28.6612 19.2862C31.0054 16.942 34.1848 15.625 37.5 15.625C40.8152 15.625 43.9946 16.942 46.3388 19.2862C48.683 21.6304 50 24.8098 50 28.125V28.125ZM43.75 28.125C43.75 29.7826 43.0915 31.3723 41.9194 32.5444C40.7473 33.7165 39.1576 34.375 37.5 34.375C35.8424 34.375 34.2527 33.7165 33.0806 32.5444C31.9085 31.3723 31.25 29.7826 31.25 28.125C31.25 26.4674 31.9085 24.8777 33.0806 23.7056C34.2527 22.5335 35.8424 21.875 37.5 21.875C39.1576 21.875 40.7473 22.5335 41.9194 23.7056C43.0915 24.8777 43.75 26.4674 43.75 28.125V28.125Z" fill="#F8F8F8"/>
<path fill-rule="evenodd" clip-rule="evenodd" d="M37.5 3.125C18.5156 3.125 3.125 18.5156 3.125 37.5C3.125 56.4844 18.5156 71.875 37.5 71.875C56.4844 71.875 71.875 56.4844 71.875 37.5C71.875 18.5156 56.4844 3.125 37.5 3.125ZM9.375 37.5C9.375 44.0312 11.6031 50.0437 15.3375 54.8187C17.9601 51.3747 21.3434 48.5836 25.2232 46.6635C29.103 44.7434 33.3742 43.7462 37.7031 43.75C41.976 43.7459 46.1935 44.7173 50.0342 46.5899C53.8748 48.4626 57.2374 51.1873 59.8656 54.5563C62.5733 51.005 64.3964 46.8601 65.184 42.4643C65.9717 38.0686 65.7013 33.5485 64.3953 29.2781C63.0892 25.0076 60.7851 21.1095 57.6734 17.9064C54.5617 14.7032 50.732 12.2871 46.5012 10.8578C42.2704 9.42862 37.76 9.02741 33.3433 9.68742C28.9266 10.3474 24.7306 12.0497 21.1024 14.6533C17.4742 17.2569 14.5182 20.6871 12.4788 24.66C10.4395 28.6329 9.37556 33.0343 9.375 37.5V37.5ZM37.5 65.625C31.0436 65.6347 24.7821 63.4136 19.775 59.3375C21.7904 56.4523 24.4729 54.0966 27.5944 52.4709C30.7158 50.8452 34.1837 49.9975 37.7031 50C41.1786 49.9972 44.6046 50.8237 47.6966 52.4107C50.7886 53.9977 53.4574 56.2996 55.4812 59.125C50.4353 63.3334 44.0706 65.6342 37.5 65.625V65.625Z" fill="#F8F8F8"/>
</svg>
