<svg width="59" height="59" viewBox="0 0 59 59" fill="none" xmlns="http://www.w3.org/2000/svg">
<path d="M24.25 0.8125C28.6187 0.812324 32.9005 2.03317 36.6121 4.33726C40.3238 6.64135 43.3176 9.93696 45.2558 13.8522C47.1939 17.7674 47.9991 22.1464 47.5807 26.495C47.1622 30.8436 45.5367 34.9887 42.8875 38.4625L57.7094 53.2906C58.2698 53.853 58.5952 54.6076 58.6195 55.4012C58.6437 56.1948 58.365 56.9679 57.8398 57.5634C57.3147 58.1589 56.5826 58.5322 55.7923 58.6075C55.0019 58.6828 54.2125 58.4544 53.5844 57.9688L53.2906 57.7094L38.4625 42.8875C35.5031 45.144 32.0489 46.6634 28.3858 47.3199C24.7226 47.9764 20.9557 47.7512 17.3969 46.6628C13.838 45.5744 10.5895 43.6542 7.92017 41.0611C5.2508 38.4679 3.23732 35.2764 2.04634 31.7506C0.855349 28.2248 0.521095 24.466 1.07123 20.7853C1.62137 17.1047 3.04009 13.6079 5.20998 10.5845C7.37988 7.56098 10.2386 5.09768 13.5495 3.39839C16.8605 1.69911 20.5285 0.812696 24.25 0.8125V0.8125ZM24.25 7.0625C19.6916 7.0625 15.3199 8.87332 12.0966 12.0966C8.87332 15.3199 7.0625 19.6916 7.0625 24.25C7.0625 28.8084 8.87332 33.1801 12.0966 36.4034C15.3199 39.6267 19.6916 41.4375 24.25 41.4375C28.8084 41.4375 33.1801 39.6267 36.4034 36.4034C39.6267 33.1801 41.4375 28.8084 41.4375 24.25C41.4375 19.6916 39.6267 15.3199 36.4034 12.0966C33.1801 8.87332 28.8084 7.0625 24.25 7.0625Z" fill="#F8F8F8"/>
</svg>
