<svg width="61" height="63" viewBox="0 0 61 63" fill="none" xmlns="http://www.w3.org/2000/svg">
<path d="M36.0079 62.5H24.6329C23.9202 62.5001 23.2288 62.2566 22.6735 61.8099C22.1182 61.3631 21.7323 60.74 21.5798 60.0438L20.3079 54.1562C18.6112 53.4128 17.0024 52.4832 15.511 51.3844L9.77038 53.2125C9.09089 53.4292 8.35772 53.4069 7.69263 53.1494C7.02754 52.8919 6.47054 52.4146 6.11413 51.7969L0.414129 41.95C0.0614575 41.3317 -0.0709264 40.612 0.0386357 39.9086C0.148198 39.2052 0.493219 38.5599 1.01725 38.0781L5.47038 34.0156C5.26787 32.1753 5.26787 30.3184 5.47038 28.4781L1.01725 24.425C0.492476 23.943 0.146986 23.2971 0.0374064 22.5931C-0.0721736 21.889 0.0606574 21.1687 0.414129 20.55L6.10163 10.6969C6.45804 10.0791 7.01504 9.60185 7.68013 9.34434C8.34522 9.08683 9.07839 9.06456 9.75788 9.28125L15.4985 11.1094C16.261 10.5469 17.0548 10.0219 17.8735 9.54687C18.6641 9.10312 19.4766 8.7 20.3079 8.34063L21.5829 2.45937C21.7347 1.76312 22.1199 1.13965 22.6746 0.69234C23.2293 0.245031 23.9203 0.000749894 24.6329 0H36.0079C36.7205 0.000749894 37.4114 0.245031 37.9662 0.69234C38.5209 1.13965 38.9061 1.76312 39.0579 2.45937L40.3454 8.34375C42.0399 9.09146 43.6483 10.0209 45.1423 11.1156L50.886 9.2875C51.5651 9.07161 52.2975 9.09428 52.962 9.35175C53.6264 9.60922 54.1828 10.086 54.5391 10.7031L60.2266 20.5563C60.9516 21.8281 60.7016 23.4375 59.6235 24.4281L55.1704 28.4906C55.3729 30.3309 55.3729 32.1878 55.1704 34.0281L59.6235 38.0906C60.7016 39.0844 60.9516 40.6906 60.2266 41.9625L54.5391 51.8156C54.1827 52.4334 53.6257 52.9107 52.9606 53.1682C52.2955 53.4257 51.5624 53.4479 50.8829 53.2313L45.1423 51.4031C43.652 52.5011 42.0442 53.4297 40.3485 54.1719L39.0579 60.0438C38.9055 60.7394 38.52 61.3622 37.9653 61.8089C37.4107 62.2556 36.7201 62.4994 36.0079 62.5V62.5ZM30.3079 18.75C26.9927 18.75 23.8132 20.067 21.469 22.4112C19.1248 24.7554 17.8079 27.9348 17.8079 31.25C17.8079 34.5652 19.1248 37.7446 21.469 40.0888C23.8132 42.433 26.9927 43.75 30.3079 43.75C33.6231 43.75 36.8025 42.433 39.1467 40.0888C41.4909 37.7446 42.8079 34.5652 42.8079 31.25C42.8079 27.9348 41.4909 24.7554 39.1467 22.4112C36.8025 20.067 33.6231 18.75 30.3079 18.75V18.75Z" fill="#F8F8F8"/>
</svg>
