<svg width="75" height="75" viewBox="0 0 75 75" fill="none" xmlns="http://www.w3.org/2000/svg">
<path d="M37.5 6.25C20.2688 6.25 6.25 20.2688 6.25 37.5V50.4469C6.25 53.6469 9.05312 56.25 12.5 56.25H15.625C16.4538 56.25 17.2487 55.9208 17.8347 55.3347C18.4208 54.7487 18.75 53.9538 18.75 53.125V37.0531C18.75 36.2243 18.4208 35.4295 17.8347 34.8434C17.2487 34.2574 16.4538 33.9281 15.625 33.9281H12.7875C14.525 21.8344 24.9313 12.5 37.5 12.5C50.0687 12.5 60.475 21.8344 62.2125 33.9281H59.375C58.5462 33.9281 57.7513 34.2574 57.1653 34.8434C56.5792 35.4295 56.25 36.2243 56.25 37.0531V56.25C56.25 59.6969 53.4469 62.5 50 62.5H43.75V59.375H31.25V68.75H50C56.8938 68.75 62.5 63.1438 62.5 56.25C65.9469 56.25 68.75 53.6469 68.75 50.4469V37.5C68.75 20.2688 54.7312 6.25 37.5 6.25Z" fill="#F8F8F8"/>
</svg>
