<svg width="57" height="63" viewBox="0 0 57 63" fill="none" xmlns="http://www.w3.org/2000/svg">
<path d="M43.4688 0.253124C45.2504 0.252905 46.9657 0.929048 48.268 2.1449C49.5703 3.36076 50.3624 5.02566 50.4844 6.80312L50.5 7.28125V38.9313C50.125 39.1813 49.7656 39.475 49.4344 39.8063L38.7812 50.4563L35.9438 47.6125C34.696 46.3616 33.0217 45.6282 31.2563 45.5594H38.7812C39.4029 45.5594 39.999 45.3124 40.4385 44.8729C40.8781 44.4334 41.125 43.8372 41.125 43.2156C41.125 42.594 40.8781 41.9979 40.4385 41.5583C39.999 41.1188 39.4029 40.8719 38.7812 40.8719H23.1438C22.5221 40.8719 21.926 41.1188 21.4865 41.5583C21.0469 41.9979 20.8 42.594 20.8 43.2156C20.8 43.8372 21.0469 44.4334 21.4865 44.8729C21.926 45.3124 22.5221 45.5594 23.1438 45.5594H30.6844C29.3198 45.6153 28.001 46.0674 26.8892 46.8604C25.7773 47.6535 24.9205 48.7532 24.4233 50.0253C23.9262 51.2973 23.8102 52.6866 24.0897 54.0234C24.3691 55.3602 25.0318 56.5867 25.9969 57.5531L31.1781 62.75H7.53125C5.7496 62.7502 4.03431 62.0741 2.73202 60.8582C1.42973 59.6424 0.637569 57.9775 0.515625 56.2L0.5 55.7188V7.28437C0.499781 5.50273 1.17592 3.78743 2.39178 2.48514C3.60763 1.18286 5.27253 0.390693 7.05 0.26875L7.53125 0.253124H43.4688V0.253124ZM16.125 18.2219C16.125 17.3931 15.7958 16.5982 15.2097 16.0122C14.6237 15.4261 13.8288 15.0969 13 15.0969C12.1712 15.0969 11.3763 15.4261 10.7903 16.0122C10.2042 16.5982 9.875 17.3931 9.875 18.2219C9.875 19.0507 10.2042 19.8455 10.7903 20.4316C11.3763 21.0176 12.1712 21.3469 13 21.3469C13.8288 21.3469 14.6237 21.0176 15.2097 20.4316C15.7958 19.8455 16.125 19.0507 16.125 18.2219ZM23.1438 15.875C22.5221 15.875 21.926 16.1219 21.4865 16.5615C21.0469 17.001 20.8 17.5971 20.8 18.2187C20.8 18.8404 21.0469 19.4365 21.4865 19.876C21.926 20.3156 22.5221 20.5625 23.1438 20.5625H38.7812C39.4029 20.5625 39.999 20.3156 40.4385 19.876C40.8781 19.4365 41.125 18.8404 41.125 18.2187C41.125 17.5971 40.8781 17.001 40.4385 16.5615C39.999 16.1219 39.4029 15.875 38.7812 15.875H23.1438ZM20.8 30.7188C20.8 32.0125 21.85 33.0625 23.1438 33.0625H38.7812C39.089 33.0625 39.3938 33.0019 39.6782 32.8841C39.9625 32.7663 40.2209 32.5937 40.4385 32.376C40.6562 32.1584 40.8288 31.9 40.9466 31.6157C41.0644 31.3313 41.125 31.0265 41.125 30.7188C41.125 30.411 41.0644 30.1062 40.9466 29.8218C40.8288 29.5375 40.6562 29.2791 40.4385 29.0615C40.2209 28.8438 39.9625 28.6712 39.6782 28.5534C39.3938 28.4356 39.089 28.375 38.7812 28.375H23.1438C22.5221 28.375 21.926 28.6219 21.4865 29.0615C21.0469 29.501 20.8 30.0971 20.8 30.7188ZM16.125 30.7188C16.125 29.8899 15.7958 29.0951 15.2097 28.509C14.6237 27.923 13.8288 27.5938 13 27.5938C12.1712 27.5938 11.3763 27.923 10.7903 28.509C10.2042 29.0951 9.875 29.8899 9.875 30.7188C9.875 31.5476 10.2042 32.3424 10.7903 32.9285C11.3763 33.5145 12.1712 33.8438 13 33.8438C13.8288 33.8438 14.6237 33.5145 15.2097 32.9285C15.7958 32.3424 16.125 31.5476 16.125 30.7188ZM16.125 43.2125C16.125 42.3837 15.7958 41.5888 15.2097 41.0028C14.6237 40.4167 13.8288 40.0875 13 40.0875C12.1712 40.0875 11.3763 40.4167 10.7903 41.0028C10.2042 41.5888 9.875 42.3837 9.875 43.2125C9.875 44.0413 10.2042 44.8362 10.7903 45.4222C11.3763 46.0083 12.1712 46.3375 13 46.3375C13.8288 46.3375 14.6237 46.0083 15.2097 45.4222C15.7958 44.8362 16.125 44.0413 16.125 43.2125ZM38.7812 57.0906L52.75 43.1219C52.9663 42.8981 53.225 42.7197 53.511 42.597C53.797 42.4743 54.1046 42.4098 54.4158 42.4072C54.727 42.4047 55.0356 42.4641 55.3236 42.5821C55.6116 42.7001 55.8732 42.8742 56.0931 43.0944C56.3131 43.3146 56.487 43.5763 56.6047 43.8644C56.7224 44.1525 56.7816 44.4612 56.7787 44.7724C56.7759 45.0836 56.7111 45.3911 56.5881 45.677C56.4651 45.9629 56.2865 46.2214 56.0625 46.4375L40.4375 62.0625C39.998 62.5014 39.4023 62.7479 38.7812 62.7479C38.1602 62.7479 37.5645 62.5014 37.125 62.0625L29.3125 54.2469C28.8985 53.8026 28.6731 53.2149 28.6838 52.6077C28.6945 52.0005 28.9405 51.4212 29.3699 50.9918C29.7993 50.5624 30.3787 50.3164 30.9859 50.3057C31.5931 50.295 32.1807 50.5204 32.625 50.9344L38.7812 57.0906V57.0906Z" fill="#F8F8F8"/>
</svg>
